<svg width="158" height="52" viewBox="0 0 158 52" fill="none" xmlns="http://www.w3.org/2000/svg">
<path d="M0.90625 0.25H3.15625V52H0.90625V0.25ZM14.4062 0.25H16.6562V40.75H34.6562V43H16.6562V45.25H34.6562V47.5H16.6562V49.75H34.6562V52H14.4062V0.25ZM9.90625 0.25H12.1562V52H9.90625V0.25ZM5.40625 0.25H7.65625V52H5.40625V0.25ZM53.1562 0.25H55.4062V52H53.1562V0.25ZM48.6562 0.25H50.9062V52H48.6562V0.25ZM44.1562 0.25H46.4062V52H44.1562V0.25ZM39.6562 0.25H41.9062V52H39.6562V0.25ZM98.0938 27.0938L95.8438 23.375V0.25H98.0938V27.0938ZM102.594 34.4688L100.344 30.6875V0.25H102.594V34.4688ZM107.094 41.9375L104.844 38.125V0.25H107.094V41.9375ZM74.8438 25.1562L77.0938 28.875V52H74.8438V25.1562ZM70.3438 17.7812L72.5938 21.5625V52H70.3438V17.7812ZM65.8438 10.3125L68.0938 14.125V52H65.8438V10.3125ZM66.625 0.25H69.25L101.062 52H98.4375L66.625 0.25ZM71.9375 0.25H74.5938L106.375 52H103.688L71.9375 0.25ZM77.2188 0.25H79.8438L109.344 48.3438V0.25H111.594V52C111.594 52 110.708 52 108.938 52L77.2188 0.25ZM63.5938 3.90625V52H61.3438V0.25C61.3438 0.25 62.2396 0.25 64.0312 0.25L95.75 52H93.1562L63.5938 3.90625ZM128.781 52H126.531V0.25H128.781V52ZM124.281 52H122.031V0.25H124.281V52ZM119.781 52H117.531V0.25H119.781V52ZM133.281 40.75H157.219V43H133.281V45.25H157.219V47.5H133.281V49.75H157.219V52H131.031V0.25H157.219V2.5H133.281V4.75H157.219V7H133.281V9.25H157.219V11.5H133.281V20.5H145.562V22.75H133.281V25H145.562V27.25H133.281V29.5H145.562V31.75H133.281V40.75Z" fill="white"/>
</svg>
